<svg width="11" height="11" viewBox="0 0 11 11" fill="none" xmlns="http://www.w3.org/2000/svg">
<circle cx="5.5" cy="5.5" r="5.5" fill="#6A6A6A"/>
<path d="M4.737 7.101L4.503 5.832C4.737 5.772 4.947 5.706 5.133 5.634C5.319 5.556 5.478 5.475 5.61 5.391C5.748 5.301 5.862 5.205 5.952 5.103C6.042 5.001 6.108 4.893 6.15 4.779C6.198 4.659 6.222 4.533 6.222 4.401C6.222 4.227 6.174 4.071 6.078 3.933C5.988 3.795 5.862 3.687 5.7 3.609C5.538 3.531 5.355 3.492 5.151 3.492C4.911 3.492 4.677 3.576 4.449 3.744C4.227 3.906 4.035 4.137 3.873 4.437L3.198 3.87C3.456 3.474 3.762 3.168 4.116 2.952C4.476 2.73 4.851 2.619 5.241 2.619C5.619 2.619 5.958 2.697 6.258 2.853C6.558 3.009 6.795 3.222 6.969 3.492C7.149 3.762 7.239 4.065 7.239 4.401C7.239 4.599 7.197 4.794 7.113 4.986C7.035 5.172 6.921 5.349 6.771 5.517C6.621 5.685 6.444 5.835 6.24 5.967C6.042 6.099 5.823 6.207 5.583 6.291L5.43 7.101H4.737ZM4.422 8.424C4.422 8.226 4.479 8.064 4.593 7.938C4.707 7.812 4.857 7.749 5.043 7.749C5.241 7.749 5.394 7.809 5.502 7.929C5.61 8.043 5.664 8.208 5.664 8.424C5.664 8.622 5.607 8.784 5.493 8.91C5.379 9.036 5.229 9.099 5.043 9.099C4.845 9.099 4.692 9.042 4.584 8.928C4.476 8.808 4.422 8.64 4.422 8.424Z" fill="#222222"/>
</svg>
