<svg width="1280" height="1566" viewBox="0 0 1280 1566" fill="none" xmlns="http://www.w3.org/2000/svg" style="">
<path d="M639.68 313.003L-122.009 1632.29" stroke="url(#paint0_linear_1592_1550)" class="faYWXops_0"></path>
<path d="M639.996 313.003L1400.33 1629.94" stroke="url(#paint1_linear_1592_1550)" class="faYWXops_1"></path>
<path d="M639.996 312.83L819.996 1.06093" stroke="url(#paint2_linear_1592_1550)" class="faYWXops_2"></path>
<path d="M639.996 312.83L459.996 1.06044" stroke="url(#paint3_linear_1592_1550)" class="faYWXops_3"></path>
<path d="M1249 313L30.9999 313" stroke="url(#paint4_radial_1592_1550)" class="faYWXops_4"></path>
<path d="M566.266 119.913L566.122 117.009L574.93 108.201H578.338L566.266 119.913ZM564.106 125.001V108.201H566.698V125.001H564.106ZM575.242 125.001L568.81 116.409L570.73 114.753L578.482 125.001H575.242ZM584.83 125.241C583.79 125.241 582.838 124.953 581.974 124.377C581.126 123.801 580.446 123.017 579.934 122.025C579.422 121.033 579.166 119.913 579.166 118.665C579.166 117.401 579.422 116.281 579.934 115.305C580.462 114.313 581.166 113.537 582.046 112.977C582.942 112.417 583.942 112.137 585.046 112.137C585.702 112.137 586.302 112.233 586.846 112.425C587.39 112.617 587.862 112.889 588.262 113.241C588.678 113.577 589.014 113.969 589.27 114.417C589.542 114.865 589.71 115.345 589.774 115.857L589.222 115.665V112.401H591.718V125.001H589.222V122.001L589.798 121.833C589.702 122.265 589.502 122.689 589.198 123.105C588.91 123.505 588.534 123.865 588.07 124.185C587.622 124.505 587.118 124.761 586.558 124.953C586.014 125.145 585.438 125.241 584.83 125.241ZM585.478 122.961C586.23 122.961 586.894 122.777 587.47 122.409C588.046 122.041 588.494 121.537 588.814 120.897C589.15 120.241 589.318 119.497 589.318 118.665C589.318 117.849 589.15 117.121 588.814 116.481C588.494 115.841 588.046 115.337 587.47 114.969C586.894 114.601 586.23 114.417 585.478 114.417C584.742 114.417 584.086 114.601 583.51 114.969C582.95 115.337 582.502 115.841 582.166 116.481C581.846 117.121 581.686 117.849 581.686 118.665C581.686 119.497 581.846 120.241 582.166 120.897C582.502 121.537 582.95 122.041 583.51 122.409C584.086 122.777 584.742 122.961 585.478 122.961ZM595.217 125.001V107.241H597.689V125.001H595.217ZM606.838 125.241C605.542 125.241 604.39 124.969 603.382 124.425C602.39 123.865 601.606 123.105 601.03 122.145C600.47 121.185 600.19 120.081 600.19 118.833C600.19 117.841 600.35 116.937 600.67 116.121C600.99 115.305 601.43 114.601 601.99 114.009C602.566 113.401 603.246 112.937 604.03 112.617C604.83 112.281 605.694 112.113 606.622 112.113C607.438 112.113 608.198 112.273 608.902 112.593C609.606 112.897 610.214 113.321 610.726 113.865C611.254 114.409 611.654 115.057 611.926 115.809C612.214 116.545 612.35 117.353 612.334 118.233L612.31 119.289H602.014L601.462 117.321H610.174L609.814 117.729V117.153C609.766 116.625 609.59 116.153 609.286 115.737C608.982 115.321 608.598 114.993 608.134 114.753C607.67 114.513 607.166 114.393 606.622 114.393C605.758 114.393 605.03 114.561 604.438 114.897C603.846 115.217 603.398 115.697 603.094 116.337C602.79 116.961 602.638 117.737 602.638 118.665C602.638 119.545 602.822 120.313 603.19 120.969C603.558 121.609 604.078 122.105 604.75 122.457C605.422 122.809 606.198 122.985 607.078 122.985C607.702 122.985 608.278 122.881 608.806 122.673C609.35 122.465 609.934 122.089 610.558 121.545L611.806 123.297C611.422 123.681 610.95 124.017 610.39 124.305C609.846 124.593 609.262 124.825 608.638 125.001C608.03 125.161 607.43 125.241 606.838 125.241ZM615.429 125.001V112.401H617.901V125.001H615.429ZM616.629 109.617C616.101 109.617 615.693 109.481 615.405 109.209C615.117 108.937 614.973 108.553 614.973 108.057C614.973 107.593 615.117 107.217 615.405 106.929C615.709 106.641 616.117 106.497 616.629 106.497C617.157 106.497 617.565 106.633 617.853 106.905C618.141 107.177 618.285 107.561 618.285 108.057C618.285 108.521 618.133 108.897 617.829 109.185C617.541 109.473 617.141 109.617 616.629 109.617ZM626.957 125.241C625.805 125.241 624.773 124.961 623.861 124.401C622.965 123.825 622.253 123.049 621.725 122.073C621.197 121.081 620.933 119.953 620.933 118.689C620.933 117.425 621.189 116.305 621.701 115.329C622.229 114.337 622.941 113.561 623.837 113.001C624.733 112.425 625.749 112.137 626.885 112.137C627.509 112.137 628.109 112.241 628.685 112.449C629.277 112.641 629.805 112.913 630.269 113.265C630.733 113.601 631.093 113.977 631.349 114.393C631.621 114.793 631.757 115.201 631.757 115.617L631.037 115.665V107.241H633.509V125.001H631.037V122.001H631.517C631.517 122.385 631.389 122.769 631.133 123.153C630.877 123.521 630.533 123.865 630.101 124.185C629.685 124.505 629.197 124.761 628.637 124.953C628.093 125.145 627.533 125.241 626.957 125.241ZM627.293 123.105C628.045 123.105 628.709 122.913 629.285 122.529C629.861 122.145 630.309 121.625 630.629 120.969C630.965 120.297 631.133 119.537 631.133 118.689C631.133 117.841 630.965 117.089 630.629 116.433C630.309 115.761 629.861 115.233 629.285 114.849C628.709 114.465 628.045 114.273 627.293 114.273C626.541 114.273 625.877 114.465 625.301 114.849C624.725 115.233 624.269 115.761 623.933 116.433C623.613 117.089 623.453 117.841 623.453 118.689C623.453 119.537 623.613 120.297 623.933 120.969C624.269 121.625 624.725 122.145 625.301 122.529C625.877 122.913 626.541 123.105 627.293 123.105ZM642.576 125.241C641.344 125.241 640.24 124.961 639.264 124.401C638.304 123.825 637.544 123.049 636.984 122.073C636.424 121.081 636.144 119.953 636.144 118.689C636.144 117.425 636.424 116.305 636.984 115.329C637.544 114.337 638.304 113.561 639.264 113.001C640.24 112.425 641.344 112.137 642.576 112.137C643.792 112.137 644.88 112.425 645.84 113.001C646.816 113.561 647.584 114.337 648.144 115.329C648.704 116.305 648.984 117.425 648.984 118.689C648.984 119.953 648.704 121.081 648.144 122.073C647.584 123.049 646.816 123.825 645.84 124.401C644.88 124.961 643.792 125.241 642.576 125.241ZM642.576 122.985C643.328 122.985 644 122.801 644.592 122.433C645.184 122.049 645.648 121.537 645.984 120.897C646.32 120.241 646.48 119.505 646.464 118.689C646.48 117.857 646.32 117.121 645.984 116.481C645.648 115.825 645.184 115.313 644.592 114.945C644 114.577 643.328 114.393 642.576 114.393C641.824 114.393 641.144 114.585 640.536 114.969C639.944 115.337 639.48 115.849 639.144 116.505C638.808 117.145 638.648 117.873 638.664 118.689C638.648 119.505 638.808 120.241 639.144 120.897C639.48 121.537 639.944 122.049 640.536 122.433C641.144 122.801 641.824 122.985 642.576 122.985ZM655.877 125.241C654.821 125.241 653.869 125.057 653.021 124.689C652.173 124.321 651.469 123.777 650.909 123.057L652.589 121.617C653.069 122.177 653.589 122.585 654.149 122.841C654.725 123.081 655.373 123.201 656.093 123.201C656.381 123.201 656.645 123.169 656.885 123.105C657.141 123.025 657.357 122.913 657.533 122.769C657.725 122.625 657.869 122.457 657.965 122.265C658.061 122.057 658.109 121.833 658.109 121.593C658.109 121.177 657.957 120.841 657.653 120.585C657.493 120.473 657.237 120.353 656.885 120.225C656.549 120.081 656.109 119.937 655.565 119.793C654.637 119.553 653.877 119.281 653.285 118.977C652.693 118.673 652.237 118.329 651.917 117.945C651.677 117.641 651.501 117.313 651.389 116.961C651.277 116.593 651.221 116.193 651.221 115.761C651.221 115.233 651.333 114.753 651.557 114.321C651.797 113.873 652.117 113.489 652.517 113.169C652.933 112.833 653.413 112.577 653.957 112.401C654.517 112.225 655.109 112.137 655.733 112.137C656.325 112.137 656.909 112.217 657.485 112.377C658.077 112.537 658.621 112.769 659.117 113.073C659.613 113.377 660.029 113.737 660.365 114.153L658.949 115.713C658.645 115.409 658.309 115.145 657.941 114.921C657.589 114.681 657.229 114.497 656.861 114.369C656.493 114.241 656.157 114.177 655.853 114.177C655.517 114.177 655.213 114.209 654.941 114.273C654.669 114.337 654.437 114.433 654.245 114.561C654.069 114.689 653.933 114.849 653.837 115.041C653.741 115.233 653.693 115.449 653.693 115.689C653.709 115.897 653.757 116.097 653.837 116.289C653.933 116.465 654.061 116.617 654.221 116.745C654.397 116.873 654.661 117.009 655.013 117.153C655.365 117.297 655.813 117.433 656.357 117.561C657.157 117.769 657.813 118.001 658.325 118.257C658.853 118.497 659.269 118.777 659.573 119.097C659.893 119.401 660.117 119.753 660.245 120.153C660.373 120.553 660.437 121.001 660.437 121.497C660.437 122.217 660.229 122.865 659.813 123.441C659.413 124.001 658.869 124.441 658.181 124.761C657.493 125.081 656.725 125.241 655.877 125.241ZM668.514 125.241C667.346 125.241 666.298 124.953 665.37 124.377C664.458 123.801 663.73 123.017 663.186 122.025C662.658 121.033 662.394 119.921 662.394 118.689C662.394 117.457 662.658 116.345 663.186 115.353C663.73 114.361 664.458 113.577 665.37 113.001C666.298 112.425 667.346 112.137 668.514 112.137C669.634 112.137 670.65 112.369 671.562 112.833C672.49 113.281 673.194 113.897 673.674 114.681L672.306 116.361C672.05 115.993 671.722 115.657 671.322 115.353C670.922 115.049 670.498 114.809 670.05 114.633C669.602 114.457 669.17 114.369 668.754 114.369C667.986 114.369 667.298 114.561 666.69 114.945C666.098 115.313 665.626 115.825 665.274 116.481C664.922 117.137 664.746 117.873 664.746 118.689C664.746 119.505 664.93 120.241 665.298 120.897C665.666 121.537 666.154 122.049 666.762 122.433C667.37 122.817 668.042 123.009 668.778 123.009C669.21 123.009 669.626 122.937 670.026 122.793C670.442 122.649 670.842 122.433 671.226 122.145C671.61 121.857 671.97 121.505 672.306 121.089L673.674 122.769C673.162 123.489 672.426 124.081 671.466 124.545C670.522 125.009 669.538 125.241 668.514 125.241ZM681.669 125.241C680.437 125.241 679.333 124.961 678.357 124.401C677.397 123.825 676.637 123.049 676.077 122.073C675.517 121.081 675.237 119.953 675.237 118.689C675.237 117.425 675.517 116.305 676.077 115.329C676.637 114.337 677.397 113.561 678.357 113.001C679.333 112.425 680.437 112.137 681.669 112.137C682.885 112.137 683.973 112.425 684.933 113.001C685.909 113.561 686.677 114.337 687.237 115.329C687.797 116.305 688.077 117.425 688.077 118.689C688.077 119.953 687.797 121.081 687.237 122.073C686.677 123.049 685.909 123.825 684.933 124.401C683.973 124.961 682.885 125.241 681.669 125.241ZM681.669 122.985C682.421 122.985 683.093 122.801 683.685 122.433C684.277 122.049 684.741 121.537 685.077 120.897C685.413 120.241 685.573 119.505 685.557 118.689C685.573 117.857 685.413 117.121 685.077 116.481C684.741 115.825 684.277 115.313 683.685 114.945C683.093 114.577 682.421 114.393 681.669 114.393C680.917 114.393 680.237 114.585 679.629 114.969C679.037 115.337 678.573 115.849 678.237 116.505C677.901 117.145 677.741 117.873 677.757 118.689C677.741 119.505 677.901 120.241 678.237 120.897C678.573 121.537 679.037 122.049 679.629 122.433C680.237 122.801 680.917 122.985 681.669 122.985ZM690.771 130.281V112.401H693.267V115.281L692.883 115.065C692.979 114.585 693.251 114.129 693.699 113.697C694.147 113.249 694.691 112.889 695.331 112.617C695.987 112.329 696.659 112.185 697.347 112.185C698.483 112.185 699.491 112.465 700.371 113.025C701.251 113.585 701.947 114.353 702.459 115.329C702.971 116.305 703.227 117.425 703.227 118.689C703.227 119.937 702.971 121.057 702.459 122.049C701.963 123.025 701.275 123.801 700.395 124.377C699.515 124.937 698.523 125.217 697.419 125.217C696.683 125.217 695.971 125.073 695.283 124.785C694.595 124.481 694.011 124.097 693.531 123.633C693.051 123.169 692.755 122.689 692.643 122.193L693.267 121.857V130.281H690.771ZM697.011 122.937C697.747 122.937 698.403 122.753 698.979 122.385C699.555 122.017 700.011 121.513 700.347 120.873C700.683 120.233 700.851 119.505 700.851 118.689C700.851 117.873 700.683 117.153 700.347 116.529C700.027 115.889 699.579 115.385 699.003 115.017C698.427 114.649 697.763 114.465 697.011 114.465C696.259 114.465 695.595 114.649 695.019 115.017C694.443 115.369 693.987 115.865 693.651 116.505C693.315 117.145 693.147 117.873 693.147 118.689C693.147 119.505 693.315 120.233 693.651 120.873C693.987 121.513 694.443 122.017 695.019 122.385C695.595 122.753 696.259 122.937 697.011 122.937ZM711.792 125.241C710.496 125.241 709.344 124.969 708.336 124.425C707.344 123.865 706.56 123.105 705.984 122.145C705.424 121.185 705.144 120.081 705.144 118.833C705.144 117.841 705.304 116.937 705.624 116.121C705.944 115.305 706.384 114.601 706.944 114.009C707.52 113.401 708.2 112.937 708.984 112.617C709.784 112.281 710.648 112.113 711.576 112.113C712.392 112.113 713.152 112.273 713.856 112.593C714.56 112.897 715.168 113.321 715.68 113.865C716.208 114.409 716.608 115.057 716.88 115.809C717.168 116.545 717.304 117.353 717.288 118.233L717.264 119.289H706.968L706.416 117.321H715.128L714.768 117.729V117.153C714.72 116.625 714.544 116.153 714.24 115.737C713.936 115.321 713.552 114.993 713.088 114.753C712.624 114.513 712.12 114.393 711.576 114.393C710.712 114.393 709.984 114.561 709.392 114.897C708.8 115.217 708.352 115.697 708.048 116.337C707.744 116.961 707.592 117.737 707.592 118.665C707.592 119.545 707.776 120.313 708.144 120.969C708.512 121.609 709.032 122.105 709.704 122.457C710.376 122.809 711.152 122.985 712.032 122.985C712.656 122.985 713.232 122.881 713.76 122.673C714.304 122.465 714.888 122.089 715.512 121.545L716.76 123.297C716.376 123.681 715.904 124.017 715.344 124.305C714.8 124.593 714.216 124.825 713.592 125.001C712.984 125.161 712.384 125.241 711.792 125.241Z" fill="white" class="faYWXops_5"></path>
<defs>
<linearGradient id="paint0_linear_1592_1550" x1="575.288" y1="426.638" x2="-122.016" y2="1632.57" gradientUnits="userSpaceOnUse">
<stop stop-color="#C59DB2"></stop>
<stop offset="1" stop-color="#1A1A1A" stop-opacity="0"></stop>
<stop offset="1" stop-color="#2C2C2C"></stop>
</linearGradient>
<linearGradient id="paint1_linear_1592_1550" x1="706.095" y1="425.384" x2="1400.57" y2="1630.08" gradientUnits="userSpaceOnUse">
<stop stop-color="#C59DB2"></stop>
<stop offset="1" stop-color="#1A1A1A" stop-opacity="0"></stop>
<stop offset="1" stop-color="#2C2C2C"></stop>
</linearGradient>
<linearGradient id="paint2_linear_1592_1550" x1="697.752" y1="212.631" x2="819.961" y2="1.04068" gradientUnits="userSpaceOnUse">
<stop stop-color="#C695B4"></stop>
<stop offset="1" stop-color="#1A1A1A" stop-opacity="0"></stop>
</linearGradient>
<linearGradient id="paint3_linear_1592_1550" x1="582.099" y1="212.712" x2="459.961" y2="1.08065" gradientUnits="userSpaceOnUse">
<stop stop-color="#C695B4"></stop>
<stop offset="1" stop-color="#1A1A1A" stop-opacity="0"></stop>
</linearGradient>
<radialGradient id="paint4_radial_1592_1550" cx="0" cy="0" r="1" gradientUnits="userSpaceOnUse" gradientTransform="translate(640.003 313) scale(635.997 3.72839e+07)">
<stop stop-color="#C59DB2"></stop>
<stop offset="0.760176" stop-color="#B490A3" stop-opacity="0.885939"></stop>
<stop offset="1" stop-color="#2C2C2C" stop-opacity="0"></stop>
</radialGradient>
</defs>
<style data-made-with="vivus-instant">.faYWXops_0{stroke-dasharray:1524 1526;stroke-dashoffset:1525;animation:faYWXops_draw 3000ms linear 0ms forwards;}.faYWXops_1{stroke-dasharray:1521 1523;stroke-dashoffset:1522;animation:faYWXops_draw 3000ms linear 120ms forwards;}.faYWXops_2{stroke-dasharray:360 362;stroke-dashoffset:361;animation:faYWXops_draw 3000ms linear 240ms forwards;}.faYWXops_3{stroke-dasharray:361 363;stroke-dashoffset:362;animation:faYWXops_draw 3000ms linear 360ms forwards;}.faYWXops_4{stroke-dasharray:1219 1221;stroke-dashoffset:1220;animation:faYWXops_draw 3000ms linear 480ms forwards;}.faYWXops_5{stroke-dasharray:874 876;stroke-dashoffset:875;animation:faYWXops_draw 3000ms linear 600ms forwards;}@keyframes faYWXops_draw{100%{stroke-dashoffset:0;}}@keyframes faYWXops_fade{0%{stroke-opacity:1;}94.87179487179488%{stroke-opacity:1;}100%{stroke-opacity:0;}}</style></svg>
