<svg width="1280" height="1583" viewBox="0 0 1280 1583" fill="none" xmlns="http://www.w3.org/2000/svg">
<path d="M639.68 330.003L-122.009 1649.29" stroke="url(#paint0_linear_1592_1550)"/>
<path d="M639.996 330.003L1400.33 1646.94" stroke="url(#paint1_linear_1592_1550)"/>
<path d="M639.996 329.83L829.996 0.740425" stroke="url(#paint2_linear_1592_1550)"/>
<path d="M639.996 329.83L449.996 0.739937" stroke="url(#paint3_linear_1592_1550)"/>
<path d="M1249 330L30.9999 330" stroke="url(#paint4_radial_1592_1550)"/>
<path d="M566.266 131.913L566.122 129.009L574.93 120.201H578.338L566.266 131.913ZM564.106 137.001V120.201H566.698V137.001H564.106ZM575.242 137.001L568.81 128.409L570.73 126.753L578.482 137.001H575.242ZM584.83 137.241C583.79 137.241 582.838 136.953 581.974 136.377C581.126 135.801 580.446 135.017 579.934 134.025C579.422 133.033 579.166 131.913 579.166 130.665C579.166 129.401 579.422 128.281 579.934 127.305C580.462 126.313 581.166 125.537 582.046 124.977C582.942 124.417 583.942 124.137 585.046 124.137C585.702 124.137 586.302 124.233 586.846 124.425C587.39 124.617 587.862 124.889 588.262 125.241C588.678 125.577 589.014 125.969 589.27 126.417C589.542 126.865 589.71 127.345 589.774 127.857L589.222 127.665V124.401H591.718V137.001H589.222V134.001L589.798 133.833C589.702 134.265 589.502 134.689 589.198 135.105C588.91 135.505 588.534 135.865 588.07 136.185C587.622 136.505 587.118 136.761 586.558 136.953C586.014 137.145 585.438 137.241 584.83 137.241ZM585.478 134.961C586.23 134.961 586.894 134.777 587.47 134.409C588.046 134.041 588.494 133.537 588.814 132.897C589.15 132.241 589.318 131.497 589.318 130.665C589.318 129.849 589.15 129.121 588.814 128.481C588.494 127.841 588.046 127.337 587.47 126.969C586.894 126.601 586.23 126.417 585.478 126.417C584.742 126.417 584.086 126.601 583.51 126.969C582.95 127.337 582.502 127.841 582.166 128.481C581.846 129.121 581.686 129.849 581.686 130.665C581.686 131.497 581.846 132.241 582.166 132.897C582.502 133.537 582.95 134.041 583.51 134.409C584.086 134.777 584.742 134.961 585.478 134.961ZM595.217 137.001V119.241H597.689V137.001H595.217ZM606.838 137.241C605.542 137.241 604.39 136.969 603.382 136.425C602.39 135.865 601.606 135.105 601.03 134.145C600.47 133.185 600.19 132.081 600.19 130.833C600.19 129.841 600.35 128.937 600.67 128.121C600.99 127.305 601.43 126.601 601.99 126.009C602.566 125.401 603.246 124.937 604.03 124.617C604.83 124.281 605.694 124.113 606.622 124.113C607.438 124.113 608.198 124.273 608.902 124.593C609.606 124.897 610.214 125.321 610.726 125.865C611.254 126.409 611.654 127.057 611.926 127.809C612.214 128.545 612.35 129.353 612.334 130.233L612.31 131.289H602.014L601.462 129.321H610.174L609.814 129.729V129.153C609.766 128.625 609.59 128.153 609.286 127.737C608.982 127.321 608.598 126.993 608.134 126.753C607.67 126.513 607.166 126.393 606.622 126.393C605.758 126.393 605.03 126.561 604.438 126.897C603.846 127.217 603.398 127.697 603.094 128.337C602.79 128.961 602.638 129.737 602.638 130.665C602.638 131.545 602.822 132.313 603.19 132.969C603.558 133.609 604.078 134.105 604.75 134.457C605.422 134.809 606.198 134.985 607.078 134.985C607.702 134.985 608.278 134.881 608.806 134.673C609.35 134.465 609.934 134.089 610.558 133.545L611.806 135.297C611.422 135.681 610.95 136.017 610.39 136.305C609.846 136.593 609.262 136.825 608.638 137.001C608.03 137.161 607.43 137.241 606.838 137.241ZM615.429 137.001V124.401H617.901V137.001H615.429ZM616.629 121.617C616.101 121.617 615.693 121.481 615.405 121.209C615.117 120.937 614.973 120.553 614.973 120.057C614.973 119.593 615.117 119.217 615.405 118.929C615.709 118.641 616.117 118.497 616.629 118.497C617.157 118.497 617.565 118.633 617.853 118.905C618.141 119.177 618.285 119.561 618.285 120.057C618.285 120.521 618.133 120.897 617.829 121.185C617.541 121.473 617.141 121.617 616.629 121.617ZM626.957 137.241C625.805 137.241 624.773 136.961 623.861 136.401C622.965 135.825 622.253 135.049 621.725 134.073C621.197 133.081 620.933 131.953 620.933 130.689C620.933 129.425 621.189 128.305 621.701 127.329C622.229 126.337 622.941 125.561 623.837 125.001C624.733 124.425 625.749 124.137 626.885 124.137C627.509 124.137 628.109 124.241 628.685 124.449C629.277 124.641 629.805 124.913 630.269 125.265C630.733 125.601 631.093 125.977 631.349 126.393C631.621 126.793 631.757 127.201 631.757 127.617L631.037 127.665V119.241H633.509V137.001H631.037V134.001H631.517C631.517 134.385 631.389 134.769 631.133 135.153C630.877 135.521 630.533 135.865 630.101 136.185C629.685 136.505 629.197 136.761 628.637 136.953C628.093 137.145 627.533 137.241 626.957 137.241ZM627.293 135.105C628.045 135.105 628.709 134.913 629.285 134.529C629.861 134.145 630.309 133.625 630.629 132.969C630.965 132.297 631.133 131.537 631.133 130.689C631.133 129.841 630.965 129.089 630.629 128.433C630.309 127.761 629.861 127.233 629.285 126.849C628.709 126.465 628.045 126.273 627.293 126.273C626.541 126.273 625.877 126.465 625.301 126.849C624.725 127.233 624.269 127.761 623.933 128.433C623.613 129.089 623.453 129.841 623.453 130.689C623.453 131.537 623.613 132.297 623.933 132.969C624.269 133.625 624.725 134.145 625.301 134.529C625.877 134.913 626.541 135.105 627.293 135.105ZM642.576 137.241C641.344 137.241 640.24 136.961 639.264 136.401C638.304 135.825 637.544 135.049 636.984 134.073C636.424 133.081 636.144 131.953 636.144 130.689C636.144 129.425 636.424 128.305 636.984 127.329C637.544 126.337 638.304 125.561 639.264 125.001C640.24 124.425 641.344 124.137 642.576 124.137C643.792 124.137 644.88 124.425 645.84 125.001C646.816 125.561 647.584 126.337 648.144 127.329C648.704 128.305 648.984 129.425 648.984 130.689C648.984 131.953 648.704 133.081 648.144 134.073C647.584 135.049 646.816 135.825 645.84 136.401C644.88 136.961 643.792 137.241 642.576 137.241ZM642.576 134.985C643.328 134.985 644 134.801 644.592 134.433C645.184 134.049 645.648 133.537 645.984 132.897C646.32 132.241 646.48 131.505 646.464 130.689C646.48 129.857 646.32 129.121 645.984 128.481C645.648 127.825 645.184 127.313 644.592 126.945C644 126.577 643.328 126.393 642.576 126.393C641.824 126.393 641.144 126.585 640.536 126.969C639.944 127.337 639.48 127.849 639.144 128.505C638.808 129.145 638.648 129.873 638.664 130.689C638.648 131.505 638.808 132.241 639.144 132.897C639.48 133.537 639.944 134.049 640.536 134.433C641.144 134.801 641.824 134.985 642.576 134.985ZM655.877 137.241C654.821 137.241 653.869 137.057 653.021 136.689C652.173 136.321 651.469 135.777 650.909 135.057L652.589 133.617C653.069 134.177 653.589 134.585 654.149 134.841C654.725 135.081 655.373 135.201 656.093 135.201C656.381 135.201 656.645 135.169 656.885 135.105C657.141 135.025 657.357 134.913 657.533 134.769C657.725 134.625 657.869 134.457 657.965 134.265C658.061 134.057 658.109 133.833 658.109 133.593C658.109 133.177 657.957 132.841 657.653 132.585C657.493 132.473 657.237 132.353 656.885 132.225C656.549 132.081 656.109 131.937 655.565 131.793C654.637 131.553 653.877 131.281 653.285 130.977C652.693 130.673 652.237 130.329 651.917 129.945C651.677 129.641 651.501 129.313 651.389 128.961C651.277 128.593 651.221 128.193 651.221 127.761C651.221 127.233 651.333 126.753 651.557 126.321C651.797 125.873 652.117 125.489 652.517 125.169C652.933 124.833 653.413 124.577 653.957 124.401C654.517 124.225 655.109 124.137 655.733 124.137C656.325 124.137 656.909 124.217 657.485 124.377C658.077 124.537 658.621 124.769 659.117 125.073C659.613 125.377 660.029 125.737 660.365 126.153L658.949 127.713C658.645 127.409 658.309 127.145 657.941 126.921C657.589 126.681 657.229 126.497 656.861 126.369C656.493 126.241 656.157 126.177 655.853 126.177C655.517 126.177 655.213 126.209 654.941 126.273C654.669 126.337 654.437 126.433 654.245 126.561C654.069 126.689 653.933 126.849 653.837 127.041C653.741 127.233 653.693 127.449 653.693 127.689C653.709 127.897 653.757 128.097 653.837 128.289C653.933 128.465 654.061 128.617 654.221 128.745C654.397 128.873 654.661 129.009 655.013 129.153C655.365 129.297 655.813 129.433 656.357 129.561C657.157 129.769 657.813 130.001 658.325 130.257C658.853 130.497 659.269 130.777 659.573 131.097C659.893 131.401 660.117 131.753 660.245 132.153C660.373 132.553 660.437 133.001 660.437 133.497C660.437 134.217 660.229 134.865 659.813 135.441C659.413 136.001 658.869 136.441 658.181 136.761C657.493 137.081 656.725 137.241 655.877 137.241ZM668.514 137.241C667.346 137.241 666.298 136.953 665.37 136.377C664.458 135.801 663.73 135.017 663.186 134.025C662.658 133.033 662.394 131.921 662.394 130.689C662.394 129.457 662.658 128.345 663.186 127.353C663.73 126.361 664.458 125.577 665.37 125.001C666.298 124.425 667.346 124.137 668.514 124.137C669.634 124.137 670.65 124.369 671.562 124.833C672.49 125.281 673.194 125.897 673.674 126.681L672.306 128.361C672.05 127.993 671.722 127.657 671.322 127.353C670.922 127.049 670.498 126.809 670.05 126.633C669.602 126.457 669.17 126.369 668.754 126.369C667.986 126.369 667.298 126.561 666.69 126.945C666.098 127.313 665.626 127.825 665.274 128.481C664.922 129.137 664.746 129.873 664.746 130.689C664.746 131.505 664.93 132.241 665.298 132.897C665.666 133.537 666.154 134.049 666.762 134.433C667.37 134.817 668.042 135.009 668.778 135.009C669.21 135.009 669.626 134.937 670.026 134.793C670.442 134.649 670.842 134.433 671.226 134.145C671.61 133.857 671.97 133.505 672.306 133.089L673.674 134.769C673.162 135.489 672.426 136.081 671.466 136.545C670.522 137.009 669.538 137.241 668.514 137.241ZM681.669 137.241C680.437 137.241 679.333 136.961 678.357 136.401C677.397 135.825 676.637 135.049 676.077 134.073C675.517 133.081 675.237 131.953 675.237 130.689C675.237 129.425 675.517 128.305 676.077 127.329C676.637 126.337 677.397 125.561 678.357 125.001C679.333 124.425 680.437 124.137 681.669 124.137C682.885 124.137 683.973 124.425 684.933 125.001C685.909 125.561 686.677 126.337 687.237 127.329C687.797 128.305 688.077 129.425 688.077 130.689C688.077 131.953 687.797 133.081 687.237 134.073C686.677 135.049 685.909 135.825 684.933 136.401C683.973 136.961 682.885 137.241 681.669 137.241ZM681.669 134.985C682.421 134.985 683.093 134.801 683.685 134.433C684.277 134.049 684.741 133.537 685.077 132.897C685.413 132.241 685.573 131.505 685.557 130.689C685.573 129.857 685.413 129.121 685.077 128.481C684.741 127.825 684.277 127.313 683.685 126.945C683.093 126.577 682.421 126.393 681.669 126.393C680.917 126.393 680.237 126.585 679.629 126.969C679.037 127.337 678.573 127.849 678.237 128.505C677.901 129.145 677.741 129.873 677.757 130.689C677.741 131.505 677.901 132.241 678.237 132.897C678.573 133.537 679.037 134.049 679.629 134.433C680.237 134.801 680.917 134.985 681.669 134.985ZM690.771 142.281V124.401H693.267V127.281L692.883 127.065C692.979 126.585 693.251 126.129 693.699 125.697C694.147 125.249 694.691 124.889 695.331 124.617C695.987 124.329 696.659 124.185 697.347 124.185C698.483 124.185 699.491 124.465 700.371 125.025C701.251 125.585 701.947 126.353 702.459 127.329C702.971 128.305 703.227 129.425 703.227 130.689C703.227 131.937 702.971 133.057 702.459 134.049C701.963 135.025 701.275 135.801 700.395 136.377C699.515 136.937 698.523 137.217 697.419 137.217C696.683 137.217 695.971 137.073 695.283 136.785C694.595 136.481 694.011 136.097 693.531 135.633C693.051 135.169 692.755 134.689 692.643 134.193L693.267 133.857V142.281H690.771ZM697.011 134.937C697.747 134.937 698.403 134.753 698.979 134.385C699.555 134.017 700.011 133.513 700.347 132.873C700.683 132.233 700.851 131.505 700.851 130.689C700.851 129.873 700.683 129.153 700.347 128.529C700.027 127.889 699.579 127.385 699.003 127.017C698.427 126.649 697.763 126.465 697.011 126.465C696.259 126.465 695.595 126.649 695.019 127.017C694.443 127.369 693.987 127.865 693.651 128.505C693.315 129.145 693.147 129.873 693.147 130.689C693.147 131.505 693.315 132.233 693.651 132.873C693.987 133.513 694.443 134.017 695.019 134.385C695.595 134.753 696.259 134.937 697.011 134.937ZM711.792 137.241C710.496 137.241 709.344 136.969 708.336 136.425C707.344 135.865 706.56 135.105 705.984 134.145C705.424 133.185 705.144 132.081 705.144 130.833C705.144 129.841 705.304 128.937 705.624 128.121C705.944 127.305 706.384 126.601 706.944 126.009C707.52 125.401 708.2 124.937 708.984 124.617C709.784 124.281 710.648 124.113 711.576 124.113C712.392 124.113 713.152 124.273 713.856 124.593C714.56 124.897 715.168 125.321 715.68 125.865C716.208 126.409 716.608 127.057 716.88 127.809C717.168 128.545 717.304 129.353 717.288 130.233L717.264 131.289H706.968L706.416 129.321H715.128L714.768 129.729V129.153C714.72 128.625 714.544 128.153 714.24 127.737C713.936 127.321 713.552 126.993 713.088 126.753C712.624 126.513 712.12 126.393 711.576 126.393C710.712 126.393 709.984 126.561 709.392 126.897C708.8 127.217 708.352 127.697 708.048 128.337C707.744 128.961 707.592 129.737 707.592 130.665C707.592 131.545 707.776 132.313 708.144 132.969C708.512 133.609 709.032 134.105 709.704 134.457C710.376 134.809 711.152 134.985 712.032 134.985C712.656 134.985 713.232 134.881 713.76 134.673C714.304 134.465 714.888 134.089 715.512 133.545L716.76 135.297C716.376 135.681 715.904 136.017 715.344 136.305C714.8 136.593 714.216 136.825 713.592 137.001C712.984 137.161 712.384 137.241 711.792 137.241Z" fill="white"/>
<defs>
<linearGradient id="paint0_linear_1592_1550" x1="575.288" y1="443.638" x2="-122.016" y2="1649.57" gradientUnits="userSpaceOnUse">
<stop stop-color="#C59DB2"/>
<stop offset="1" stop-color="#1A1A1A" stop-opacity="0"/>
<stop offset="1" stop-color="#2C2C2C"/>
</linearGradient>
<linearGradient id="paint1_linear_1592_1550" x1="706.095" y1="442.384" x2="1400.57" y2="1647.08" gradientUnits="userSpaceOnUse">
<stop stop-color="#C59DB2"/>
<stop offset="1" stop-color="#1A1A1A" stop-opacity="0"/>
<stop offset="1" stop-color="#2C2C2C"/>
</linearGradient>
<linearGradient id="paint2_linear_1592_1550" x1="700.965" y1="224.067" x2="829.965" y2="0.722489" gradientUnits="userSpaceOnUse">
<stop stop-color="#C695B4"/>
<stop offset="1" stop-color="#1A1A1A" stop-opacity="0"/>
</linearGradient>
<linearGradient id="paint3_linear_1592_1550" x1="578.887" y1="224.147" x2="449.965" y2="0.75782" gradientUnits="userSpaceOnUse">
<stop stop-color="#C695B4"/>
<stop offset="1" stop-color="#1A1A1A" stop-opacity="0"/>
</linearGradient>
<radialGradient id="paint4_radial_1592_1550" cx="0" cy="0" r="1" gradientUnits="userSpaceOnUse" gradientTransform="translate(640.003 330) scale(635.997 3.72839e+07)">
<stop stop-color="#C59DB2"/>
<stop offset="0.760176" stop-color="#B490A3" stop-opacity="0.885939"/>
<stop offset="1" stop-color="#2C2C2C" stop-opacity="0"/>
</radialGradient>
</defs>
</svg>
