<svg width="1280" height="1566" viewBox="0 0 1280 1566" fill="none" xmlns="http://www.w3.org/2000/svg" style="">
<path d="M639.68 313.003L-122.009 1632.29" stroke="url(#paint0_linear_1592_1550)" class="UiiWjAFC_0"></path>
<path d="M639.996 313.003L1400.33 1629.94" stroke="url(#paint1_linear_1592_1550)" class="UiiWjAFC_1"></path>
<path d="M639.996 312.83L819.996 1.06093" stroke="url(#paint2_linear_1592_1550)" class="UiiWjAFC_2"></path>
<path d="M639.996 312.83L459.996 1.06044" stroke="url(#paint3_linear_1592_1550)" class="UiiWjAFC_3"></path>
<path d="M1249 313L30.9999 313" stroke="url(#paint4_radial_1592_1550)" class="UiiWjAFC_4"></path>
<path d="M573.77 137.76L573.65 135.34L580.99 128H583.83L573.77 137.76ZM571.97 142V128H574.13V142H571.97ZM581.25 142L575.89 134.84L577.49 133.46L583.95 142H581.25ZM589.24 142.2C588.373 142.2 587.58 141.96 586.86 141.48C586.153 141 585.586 140.347 585.16 139.52C584.733 138.693 584.52 137.76 584.52 136.72C584.52 135.667 584.733 134.733 585.16 133.92C585.6 133.093 586.186 132.447 586.92 131.98C587.666 131.513 588.5 131.28 589.42 131.28C589.966 131.28 590.466 131.36 590.92 131.52C591.373 131.68 591.766 131.907 592.1 132.2C592.446 132.48 592.726 132.807 592.94 133.18C593.166 133.553 593.306 133.953 593.36 134.38L592.9 134.22V131.5H594.98V142H592.9V139.5L593.38 139.36C593.3 139.72 593.133 140.073 592.88 140.42C592.64 140.753 592.326 141.053 591.94 141.32C591.566 141.587 591.146 141.8 590.68 141.96C590.226 142.12 589.746 142.2 589.24 142.2ZM589.78 140.3C590.406 140.3 590.96 140.147 591.44 139.84C591.92 139.533 592.293 139.113 592.56 138.58C592.84 138.033 592.98 137.413 592.98 136.72C592.98 136.04 592.84 135.433 592.56 134.9C592.293 134.367 591.92 133.947 591.44 133.64C590.96 133.333 590.406 133.18 589.78 133.18C589.166 133.18 588.62 133.333 588.14 133.64C587.673 133.947 587.3 134.367 587.02 134.9C586.753 135.433 586.62 136.04 586.62 136.72C586.62 137.413 586.753 138.033 587.02 138.58C587.3 139.113 587.673 139.533 588.14 139.84C588.62 140.147 589.166 140.3 589.78 140.3ZM597.896 142V127.2H599.956V142H597.896ZM607.58 142.2C606.5 142.2 605.54 141.973 604.7 141.52C603.874 141.053 603.22 140.42 602.74 139.62C602.274 138.82 602.04 137.9 602.04 136.86C602.04 136.033 602.174 135.28 602.44 134.6C602.707 133.92 603.074 133.333 603.54 132.84C604.02 132.333 604.587 131.947 605.24 131.68C605.907 131.4 606.627 131.26 607.4 131.26C608.08 131.26 608.714 131.393 609.3 131.66C609.887 131.913 610.394 132.267 610.82 132.72C611.26 133.173 611.594 133.713 611.82 134.34C612.06 134.953 612.174 135.627 612.16 136.36L612.14 137.24H603.56L603.1 135.6H610.36L610.06 135.94V135.46C610.02 135.02 609.874 134.627 609.62 134.28C609.367 133.933 609.047 133.66 608.66 133.46C608.274 133.26 607.854 133.16 607.4 133.16C606.68 133.16 606.074 133.3 605.58 133.58C605.087 133.847 604.714 134.247 604.46 134.78C604.207 135.3 604.08 135.947 604.08 136.72C604.08 137.453 604.234 138.093 604.54 138.64C604.847 139.173 605.28 139.587 605.84 139.88C606.4 140.173 607.047 140.32 607.78 140.32C608.3 140.32 608.78 140.233 609.22 140.06C609.674 139.887 610.16 139.573 610.68 139.12L611.72 140.58C611.4 140.9 611.007 141.18 610.54 141.42C610.087 141.66 609.6 141.853 609.08 142C608.574 142.133 608.074 142.2 607.58 142.2ZM614.739 142V131.5H616.799V142H614.739ZM615.739 129.18C615.299 129.18 614.959 129.067 614.719 128.84C614.479 128.613 614.359 128.293 614.359 127.88C614.359 127.493 614.479 127.18 614.719 126.94C614.972 126.7 615.312 126.58 615.739 126.58C616.179 126.58 616.519 126.693 616.759 126.92C616.999 127.147 617.119 127.467 617.119 127.88C617.119 128.267 616.992 128.58 616.739 128.82C616.499 129.06 616.166 129.18 615.739 129.18ZM624.345 142.2C623.385 142.2 622.525 141.967 621.765 141.5C621.019 141.02 620.425 140.373 619.985 139.56C619.545 138.733 619.325 137.793 619.325 136.74C619.325 135.687 619.539 134.753 619.965 133.94C620.405 133.113 620.999 132.467 621.745 132C622.492 131.52 623.339 131.28 624.285 131.28C624.805 131.28 625.305 131.367 625.785 131.54C626.279 131.7 626.719 131.927 627.105 132.22C627.492 132.5 627.792 132.813 628.005 133.16C628.232 133.493 628.345 133.833 628.345 134.18L627.745 134.22V127.2H629.805V142H627.745V139.5H628.145C628.145 139.82 628.039 140.14 627.825 140.46C627.612 140.767 627.325 141.053 626.965 141.32C626.619 141.587 626.212 141.8 625.745 141.96C625.292 142.12 624.825 142.2 624.345 142.2ZM624.625 140.42C625.252 140.42 625.805 140.26 626.285 139.94C626.765 139.62 627.139 139.187 627.405 138.64C627.685 138.08 627.825 137.447 627.825 136.74C627.825 136.033 627.685 135.407 627.405 134.86C627.139 134.3 626.765 133.86 626.285 133.54C625.805 133.22 625.252 133.06 624.625 133.06C623.999 133.06 623.445 133.22 622.965 133.54C622.485 133.86 622.105 134.3 621.825 134.86C621.559 135.407 621.425 136.033 621.425 136.74C621.425 137.447 621.559 138.08 621.825 138.64C622.105 139.187 622.485 139.62 622.965 139.94C623.445 140.26 623.999 140.42 624.625 140.42ZM637.361 142.2C636.335 142.2 635.415 141.967 634.601 141.5C633.801 141.02 633.168 140.373 632.701 139.56C632.235 138.733 632.001 137.793 632.001 136.74C632.001 135.687 632.235 134.753 632.701 133.94C633.168 133.113 633.801 132.467 634.601 132C635.415 131.52 636.335 131.28 637.361 131.28C638.375 131.28 639.281 131.52 640.081 132C640.895 132.467 641.535 133.113 642.001 133.94C642.468 134.753 642.701 135.687 642.701 136.74C642.701 137.793 642.468 138.733 642.001 139.56C641.535 140.373 640.895 141.02 640.081 141.5C639.281 141.967 638.375 142.2 637.361 142.2ZM637.361 140.32C637.988 140.32 638.548 140.167 639.041 139.86C639.535 139.54 639.921 139.113 640.201 138.58C640.481 138.033 640.615 137.42 640.601 136.74C640.615 136.047 640.481 135.433 640.201 134.9C639.921 134.353 639.535 133.927 639.041 133.62C638.548 133.313 637.988 133.16 637.361 133.16C636.735 133.16 636.168 133.32 635.661 133.64C635.168 133.947 634.781 134.373 634.501 134.92C634.221 135.453 634.088 136.06 634.101 136.74C634.088 137.42 634.221 138.033 634.501 138.58C634.781 139.113 635.168 139.54 635.661 139.86C636.168 140.167 636.735 140.32 637.361 140.32ZM648.446 142.2C647.566 142.2 646.773 142.047 646.066 141.74C645.359 141.433 644.773 140.98 644.306 140.38L645.706 139.18C646.106 139.647 646.539 139.987 647.006 140.2C647.486 140.4 648.026 140.5 648.626 140.5C648.866 140.5 649.086 140.473 649.286 140.42C649.499 140.353 649.679 140.26 649.826 140.14C649.986 140.02 650.106 139.88 650.186 139.72C650.266 139.547 650.306 139.36 650.306 139.16C650.306 138.813 650.179 138.533 649.926 138.32C649.793 138.227 649.579 138.127 649.286 138.02C649.006 137.9 648.639 137.78 648.186 137.66C647.413 137.46 646.779 137.233 646.286 136.98C645.793 136.727 645.413 136.44 645.146 136.12C644.946 135.867 644.799 135.593 644.706 135.3C644.613 134.993 644.566 134.66 644.566 134.3C644.566 133.86 644.659 133.46 644.846 133.1C645.046 132.727 645.313 132.407 645.646 132.14C645.993 131.86 646.393 131.647 646.846 131.5C647.313 131.353 647.806 131.28 648.326 131.28C648.819 131.28 649.306 131.347 649.786 131.48C650.279 131.613 650.733 131.807 651.146 132.06C651.559 132.313 651.906 132.613 652.186 132.96L651.006 134.26C650.753 134.007 650.473 133.787 650.166 133.6C649.873 133.4 649.573 133.247 649.266 133.14C648.959 133.033 648.679 132.98 648.426 132.98C648.146 132.98 647.893 133.007 647.666 133.06C647.439 133.113 647.246 133.193 647.086 133.3C646.939 133.407 646.826 133.54 646.746 133.7C646.666 133.86 646.626 134.04 646.626 134.24C646.639 134.413 646.679 134.58 646.746 134.74C646.826 134.887 646.933 135.013 647.066 135.12C647.213 135.227 647.433 135.34 647.726 135.46C648.019 135.58 648.393 135.693 648.846 135.8C649.513 135.973 650.059 136.167 650.486 136.38C650.926 136.58 651.273 136.813 651.526 137.08C651.793 137.333 651.979 137.627 652.086 137.96C652.193 138.293 652.246 138.667 652.246 139.08C652.246 139.68 652.073 140.22 651.726 140.7C651.393 141.167 650.939 141.533 650.366 141.8C649.793 142.067 649.153 142.2 648.446 142.2ZM658.976 142.2C658.003 142.2 657.13 141.96 656.356 141.48C655.596 141 654.99 140.347 654.536 139.52C654.096 138.693 653.876 137.767 653.876 136.74C653.876 135.713 654.096 134.787 654.536 133.96C654.99 133.133 655.596 132.48 656.356 132C657.13 131.52 658.003 131.28 658.976 131.28C659.91 131.28 660.756 131.473 661.516 131.86C662.29 132.233 662.876 132.747 663.276 133.4L662.136 134.8C661.923 134.493 661.65 134.213 661.316 133.96C660.983 133.707 660.63 133.507 660.256 133.36C659.883 133.213 659.523 133.14 659.176 133.14C658.536 133.14 657.963 133.3 657.456 133.62C656.963 133.927 656.57 134.353 656.276 134.9C655.983 135.447 655.836 136.06 655.836 136.74C655.836 137.42 655.99 138.033 656.296 138.58C656.603 139.113 657.01 139.54 657.516 139.86C658.023 140.18 658.583 140.34 659.196 140.34C659.556 140.34 659.903 140.28 660.236 140.16C660.583 140.04 660.916 139.86 661.236 139.62C661.556 139.38 661.856 139.087 662.136 138.74L663.276 140.14C662.85 140.74 662.236 141.233 661.436 141.62C660.65 142.007 659.83 142.2 658.976 142.2ZM669.939 142.2C668.913 142.2 667.993 141.967 667.179 141.5C666.379 141.02 665.746 140.373 665.279 139.56C664.813 138.733 664.579 137.793 664.579 136.74C664.579 135.687 664.813 134.753 665.279 133.94C665.746 133.113 666.379 132.467 667.179 132C667.993 131.52 668.913 131.28 669.939 131.28C670.953 131.28 671.859 131.52 672.659 132C673.473 132.467 674.113 133.113 674.579 133.94C675.046 134.753 675.279 135.687 675.279 136.74C675.279 137.793 675.046 138.733 674.579 139.56C674.113 140.373 673.473 141.02 672.659 141.5C671.859 141.967 670.953 142.2 669.939 142.2ZM669.939 140.32C670.566 140.32 671.126 140.167 671.619 139.86C672.113 139.54 672.499 139.113 672.779 138.58C673.059 138.033 673.193 137.42 673.179 136.74C673.193 136.047 673.059 135.433 672.779 134.9C672.499 134.353 672.113 133.927 671.619 133.62C671.126 133.313 670.566 133.16 669.939 133.16C669.313 133.16 668.746 133.32 668.239 133.64C667.746 133.947 667.359 134.373 667.079 134.92C666.799 135.453 666.666 136.06 666.679 136.74C666.666 137.42 666.799 138.033 667.079 138.58C667.359 139.113 667.746 139.54 668.239 139.86C668.746 140.167 669.313 140.32 669.939 140.32ZM677.524 146.4V131.5H679.604V133.9L679.284 133.72C679.364 133.32 679.591 132.94 679.964 132.58C680.337 132.207 680.791 131.907 681.324 131.68C681.871 131.44 682.431 131.32 683.004 131.32C683.951 131.32 684.791 131.553 685.524 132.02C686.257 132.487 686.837 133.127 687.264 133.94C687.691 134.753 687.904 135.687 687.904 136.74C687.904 137.78 687.691 138.713 687.264 139.54C686.851 140.353 686.277 141 685.544 141.48C684.811 141.947 683.984 142.18 683.064 142.18C682.451 142.18 681.857 142.06 681.284 141.82C680.711 141.567 680.224 141.247 679.824 140.86C679.424 140.473 679.177 140.073 679.084 139.66L679.604 139.38V146.4H677.524ZM682.724 140.28C683.337 140.28 683.884 140.127 684.364 139.82C684.844 139.513 685.224 139.093 685.504 138.56C685.784 138.027 685.924 137.42 685.924 136.74C685.924 136.06 685.784 135.46 685.504 134.94C685.237 134.407 684.864 133.987 684.384 133.68C683.904 133.373 683.351 133.22 682.724 133.22C682.097 133.22 681.544 133.373 681.064 133.68C680.584 133.973 680.204 134.387 679.924 134.92C679.644 135.453 679.504 136.06 679.504 136.74C679.504 137.42 679.644 138.027 679.924 138.56C680.204 139.093 680.584 139.513 681.064 139.82C681.544 140.127 682.097 140.28 682.724 140.28ZM695.041 142.2C693.961 142.2 693.001 141.973 692.161 141.52C691.335 141.053 690.681 140.42 690.201 139.62C689.735 138.82 689.501 137.9 689.501 136.86C689.501 136.033 689.635 135.28 689.901 134.6C690.168 133.92 690.535 133.333 691.001 132.84C691.481 132.333 692.048 131.947 692.701 131.68C693.368 131.4 694.088 131.26 694.861 131.26C695.541 131.26 696.175 131.393 696.761 131.66C697.348 131.913 697.855 132.267 698.281 132.72C698.721 133.173 699.055 133.713 699.281 134.34C699.521 134.953 699.635 135.627 699.621 136.36L699.601 137.24H691.021L690.561 135.6H697.821L697.521 135.94V135.46C697.481 135.02 697.335 134.627 697.081 134.28C696.828 133.933 696.508 133.66 696.121 133.46C695.735 133.26 695.315 133.16 694.861 133.16C694.141 133.16 693.535 133.3 693.041 133.58C692.548 133.847 692.175 134.247 691.921 134.78C691.668 135.3 691.541 135.947 691.541 136.72C691.541 137.453 691.695 138.093 692.001 138.64C692.308 139.173 692.741 139.587 693.301 139.88C693.861 140.173 694.508 140.32 695.241 140.32C695.761 140.32 696.241 140.233 696.681 140.06C697.135 139.887 697.621 139.573 698.141 139.12L699.181 140.58C698.861 140.9 698.468 141.18 698.001 141.42C697.548 141.66 697.061 141.853 696.541 142C696.035 142.133 695.535 142.2 695.041 142.2ZM705.36 142.2C704.48 142.2 703.687 142.047 702.98 141.74C702.273 141.433 701.687 140.98 701.22 140.38L702.62 139.18C703.02 139.647 703.453 139.987 703.92 140.2C704.4 140.4 704.94 140.5 705.54 140.5C705.78 140.5 706 140.473 706.2 140.42C706.413 140.353 706.593 140.26 706.74 140.14C706.9 140.02 707.02 139.88 707.1 139.72C707.18 139.547 707.22 139.36 707.22 139.16C707.22 138.813 707.093 138.533 706.84 138.32C706.707 138.227 706.493 138.127 706.2 138.02C705.92 137.9 705.553 137.78 705.1 137.66C704.327 137.46 703.693 137.233 703.2 136.98C702.707 136.727 702.327 136.44 702.06 136.12C701.86 135.867 701.713 135.593 701.62 135.3C701.527 134.993 701.48 134.66 701.48 134.3C701.48 133.86 701.573 133.46 701.76 133.1C701.96 132.727 702.227 132.407 702.56 132.14C702.907 131.86 703.307 131.647 703.76 131.5C704.227 131.353 704.72 131.28 705.24 131.28C705.733 131.28 706.22 131.347 706.7 131.48C707.193 131.613 707.647 131.807 708.06 132.06C708.473 132.313 708.82 132.613 709.1 132.96L707.92 134.26C707.667 134.007 707.387 133.787 707.08 133.6C706.787 133.4 706.487 133.247 706.18 133.14C705.873 133.033 705.593 132.98 705.34 132.98C705.06 132.98 704.807 133.007 704.58 133.06C704.353 133.113 704.16 133.193 704 133.3C703.853 133.407 703.74 133.54 703.66 133.7C703.58 133.86 703.54 134.04 703.54 134.24C703.553 134.413 703.593 134.58 703.66 134.74C703.74 134.887 703.847 135.013 703.98 135.12C704.127 135.227 704.347 135.34 704.64 135.46C704.933 135.58 705.307 135.693 705.76 135.8C706.427 135.973 706.973 136.167 707.4 136.38C707.84 136.58 708.187 136.813 708.44 137.08C708.707 137.333 708.893 137.627 709 137.96C709.107 138.293 709.16 138.667 709.16 139.08C709.16 139.68 708.987 140.22 708.64 140.7C708.307 141.167 707.853 141.533 707.28 141.8C706.707 142.067 706.067 142.2 705.36 142.2Z" fill="white" class="UiiWjAFC_5"></path>
<defs>
<linearGradient id="paint0_linear_1592_1550" x1="575.288" y1="426.638" x2="-122.016" y2="1632.57" gradientUnits="userSpaceOnUse">
<stop stop-color="#C59DB2"></stop>
<stop offset="1" stop-color="#1A1A1A" stop-opacity="0"></stop>
<stop offset="1" stop-color="#2C2C2C"></stop>
</linearGradient>
<linearGradient id="paint1_linear_1592_1550" x1="706.095" y1="425.384" x2="1400.57" y2="1630.08" gradientUnits="userSpaceOnUse">
<stop stop-color="#C59DB2"></stop>
<stop offset="1" stop-color="#1A1A1A" stop-opacity="0"></stop>
<stop offset="1" stop-color="#2C2C2C"></stop>
</linearGradient>
<linearGradient id="paint2_linear_1592_1550" x1="697.752" y1="212.631" x2="819.961" y2="1.04068" gradientUnits="userSpaceOnUse">
<stop stop-color="#C695B4"></stop>
<stop offset="1" stop-color="#1A1A1A" stop-opacity="0"></stop>
</linearGradient>
<linearGradient id="paint3_linear_1592_1550" x1="582.099" y1="212.712" x2="459.961" y2="1.08065" gradientUnits="userSpaceOnUse">
<stop stop-color="#C695B4"></stop>
<stop offset="1" stop-color="#1A1A1A" stop-opacity="0"></stop>
</linearGradient>
<radialGradient id="paint4_radial_1592_1550" cx="0" cy="0" r="1" gradientUnits="userSpaceOnUse" gradientTransform="translate(640.003 313) scale(635.997 3.72839e+07)">
<stop stop-color="#C59DB2"></stop>
<stop offset="0.760176" stop-color="#B490A3" stop-opacity="0.885939"></stop>
<stop offset="1" stop-color="#2C2C2C" stop-opacity="0"></stop>
</radialGradient>
</defs>
<style data-made-with="vivus-instant">.UiiWjAFC_0{stroke-dasharray:1524 1526;stroke-dashoffset:1525;animation:UiiWjAFC_draw 2333ms linear 0ms forwards;}.UiiWjAFC_1{stroke-dasharray:1521 1523;stroke-dashoffset:1522;animation:UiiWjAFC_draw 2333ms linear 233ms forwards;}.UiiWjAFC_2{stroke-dasharray:360 362;stroke-dashoffset:361;animation:UiiWjAFC_draw 2333ms linear 466ms forwards;}.UiiWjAFC_3{stroke-dasharray:361 363;stroke-dashoffset:362;animation:UiiWjAFC_draw 2333ms linear 700ms forwards;}.UiiWjAFC_4{stroke-dasharray:1219 1221;stroke-dashoffset:1220;animation:UiiWjAFC_draw 2333ms linear 933ms forwards;}.UiiWjAFC_5{stroke-dasharray:779 781;stroke-dashoffset:780;animation:UiiWjAFC_draw 2333ms linear 1166ms forwards;}@keyframes UiiWjAFC_draw{100%{stroke-dashoffset:0;}}@keyframes UiiWjAFC_fade{0%{stroke-opacity:1;}94.8051948051948%{stroke-opacity:1;}100%{stroke-opacity:0;}}</style></svg>
